<?xml version="1.0" encoding="UTF-8" standalone="no"?>
<!DOCTYPE svg PUBLIC "-//W3C//DTD SVG 1.1//EN" "http://www.w3.org/Graphics/SVG/1.1/DTD/svg11.dtd">
<svg version="1.1" xmlns="http://www.w3.org/2000/svg" xmlns:xlink="http://www.w3.org/1999/xlink" preserveAspectRatio="xMidYMid meet" viewBox="0 0 165 165" width="165" height="165"><defs><path d="M160.1 82.5C160.1 125.33 125.33 160.1 82.5 160.1C39.67 160.1 4.9 125.33 4.9 82.5C4.9 39.67 39.67 4.9 82.5 4.9C125.33 4.9 160.1 39.67 160.1 82.5Z" id="c8v4mnnzT"></path><path d="M147.47 82.5C147.47 118.36 118.36 147.47 82.5 147.47C46.64 147.47 17.53 118.36 17.53 82.5C17.53 46.64 46.64 17.53 82.5 17.53C118.36 17.53 147.47 46.64 147.47 82.5Z" id="b3YNo8TemI"></path><path d="M82.5 27.31L32.69 54.9L32.69 110.1L82.5 137.69L132.31 110.1L132.31 54.9L82.5 27.31Z" id="a74D4N4oz"></path></defs><g><g><g><g><filter id="shadow15869114" x="-17.1" y="-17.1" width="201.2" height="201.2" filterUnits="userSpaceOnUse" primitiveUnits="userSpaceOnUse"><feFlood></feFlood><feComposite in2="SourceAlpha" operator="in"></feComposite><feGaussianBlur stdDeviation="2.65"></feGaussianBlur><feOffset dx="2" dy="-2" result="afterOffset"></feOffset><feFlood flood-color="#008cff" flood-opacity="0.69"></feFlood><feComposite in2="afterOffset" operator="in"></feComposite><feMorphology operator="dilate" radius="1"></feMorphology><feComposite in2="SourceAlpha" operator="out"></feComposite></filter><path d="M160.1 82.5C160.1 125.33 125.33 160.1 82.5 160.1C39.67 160.1 4.9 125.33 4.9 82.5C4.9 39.67 39.67 4.9 82.5 4.9C125.33 4.9 160.1 39.67 160.1 82.5Z" id="bfEYO4Zok" fill="white" fill-opacity="1" filter="url(#shadow15869114)"></path></g><g><filter id="shadow11909372" x="-17.1" y="-17.1" width="201.2" height="201.2" filterUnits="userSpaceOnUse" primitiveUnits="userSpaceOnUse"><feFlood></feFlood><feComposite in2="SourceAlpha" operator="in"></feComposite><feGaussianBlur stdDeviation="2.65"></feGaussianBlur><feOffset dx="-2" dy="2" result="afterOffset"></feOffset><feFlood flood-color="#c000ff" flood-opacity="0.69"></feFlood><feComposite in2="afterOffset" operator="in"></feComposite><feMorphology operator="dilate" radius="1"></feMorphology><feComposite in2="SourceAlpha" operator="out"></feComposite></filter><path d="M160.1 82.5C160.1 125.33 125.33 160.1 82.5 160.1C39.67 160.1 4.9 125.33 4.9 82.5C4.9 39.67 39.67 4.9 82.5 4.9C125.33 4.9 160.1 39.67 160.1 82.5Z" id="a3bgK3J7G" fill="white" fill-opacity="1" filter="url(#shadow11909372)"></path></g><use xlink:href="#c8v4mnnzT" opacity="1" fill="#000000" fill-opacity="1"></use></g><g></g><g><use xlink:href="#a74D4N4oz" opacity="1" fill="#ffffff" fill-opacity="1"></use></g></g></g></svg>